<svg width="92" height="40" viewBox="0 0 92 40" fill="none" xmlns="http://www.w3.org/2000/svg">
<path d="M31.3717 19.2915L21.3533 33.7631C20.435 35.0881 18.3567 34.4398 18.3567 32.8265V23.2881H9.98167C8.655 23.2881 7.87334 21.7981 8.63 20.7065L18.6483 6.23482C19.5667 4.90982 21.645 5.55815 21.645 7.17148V16.7098H30.02C31.345 16.7098 32.1267 18.1998 31.3717 19.2915Z" stroke="white" stroke-width="3" stroke-linecap="round" stroke-linejoin="round"/>
<path d="M57.1 30.28C61.524 30.28 64.464 27.564 64.464 24.092C64.464 20.088 62.028 18.744 57.324 18.1C53.852 17.596 53.18 16.784 53.18 15.16C53.18 13.62 54.356 12.528 56.624 12.528C58.92 12.528 60.124 13.424 60.488 15.524H63.904C63.512 11.688 60.936 9.728 56.624 9.728C52.452 9.728 49.652 12.192 49.652 15.468C49.652 19.22 51.92 20.676 56.708 21.32C59.956 21.852 60.88 22.552 60.88 24.4C60.88 26.248 59.312 27.48 57.1 27.48C53.712 27.48 52.9 25.8 52.648 23.784H49.064C49.344 27.564 51.64 30.28 57.1 30.28ZM67.8734 30H71.2614V15.356H67.8734V30ZM69.5254 12.948C70.6454 12.948 71.5414 12.108 71.5414 11.016C71.5414 9.896 70.6454 9.056 69.5254 9.056C68.4054 9.056 67.5094 9.896 67.5094 11.016C67.5094 12.108 68.4054 12.948 69.5254 12.948ZM75.475 30H78.863V15.356H75.475V30ZM77.127 12.948C78.247 12.948 79.143 12.108 79.143 11.016C79.143 9.896 78.247 9.056 77.127 9.056C76.007 9.056 75.111 9.896 75.111 11.016C75.111 12.108 76.007 12.948 77.127 12.948ZM87.9766 30.252C89.0126 30.252 89.7406 30.084 90.2726 29.888V27.2C89.7966 27.396 89.2926 27.48 88.6206 27.48C87.5566 27.48 86.9406 26.892 86.9406 25.604V17.904H90.1606V15.356H86.9406V12.136H83.5526V15.356H81.5926V17.904H83.5526V25.912C83.5526 28.684 85.0646 30.252 87.9766 30.252Z" fill="white"/>
</svg>
